<?xml version="1.0" encoding="utf-8"?>
<!-- Generator: Adobe Illustrator 27.4.0, SVG Export Plug-In . SVG Version: 6.00 Build 0)  -->
<svg version="1.1" id="Capa_1" xmlns="http://www.w3.org/2000/svg" xmlns:xlink="http://www.w3.org/1999/xlink" x="0px" y="0px"
	 viewBox="0 0 72 72" style="enable-background:new 0 0 72 72;" xml:space="preserve">
<style type="text/css">
	.st0{fill:#DC582A;}
	.st1{fill:#FFFFFF;}
</style>
<rect class="st0" width="72" height="72"/>
<g>
	<path class="st1" d="M14.3,32.6c1.7-1.7,4.4-1.9,6.3-0.4c0.3,0.2,0.7,0.2,1-0.1l1.9-1.9c0.3-0.3,0.3-0.9-0.1-1.2
		c-3.6-2.9-8.8-2.7-12.2,0.6c-1.1,1.1-1.9,2.5-2.3,3.9c-0.1,0.5,0.2,1,0.8,1h2.8c0.3,0,0.6-0.2,0.7-0.5C13.6,33.5,13.9,33,14.3,32.6
		"/>
	<path class="st1" d="M14.3,39.4c-0.4-0.4-0.7-0.8-0.9-1.3c-0.1-0.3-0.4-0.4-0.7-0.4h-3c-0.5,0-0.8,0.5-0.7,1
		c0.4,1.4,1.2,2.7,2.3,3.7c1.8,1.8,4.1,2.6,6.4,2.6c2.1,0,4.2-0.7,5.8-2.1c0.3-0.3,0.3-0.8,0-1.1l-2-2c-0.3-0.3-0.7-0.3-1,0
		C18.8,41.3,16.1,41.1,14.3,39.4"/>
	<path class="st1" d="M53.7,44.6h3.1c0.3,0,0.6-0.3,0.6-0.6v-8.8c0-0.3-0.3-0.6-0.6-0.6h-3.1c-0.3,0-0.6,0.3-0.6,0.6V44
		C53.1,44.4,53.4,44.6,53.7,44.6z"/>
	<path class="st1" d="M47.9,31.4h14.6c0.3,0,0.5-0.2,0.5-0.5v-2.8c0-0.3-0.2-0.5-0.5-0.5H47.9c-0.3,0-0.5,0.2-0.5,0.5V31
		C47.4,31.2,47.6,31.4,47.9,31.4z"/>
	<path class="st1" d="M31.1,44.6h-3.4c-0.2,0-0.4-0.2-0.4-0.4v-7.3c0-0.3,0.4-0.6,0.7-0.4l3.4,2.1c0.1,0.1,0.2,0.2,0.2,0.4v5.2
		C31.5,44.4,31.4,44.6,31.1,44.6z"/>
	<path class="st1" d="M35.5,32.7l-7.5-4.6c-0.3-0.2-0.8,0-0.8,0.4v3.7c0,0.2,0.1,0.3,0.2,0.4l8,4.8c0.2,0.1,0.4,0.1,0.5,0l3.2-1.9
		c0.3-0.2,0.8,0,0.8,0.4v8.1c0,0.3,0.2,0.5,0.5,0.5h3.2c0.3,0,0.5-0.2,0.5-0.5V32.5v-3.7v-0.3c0-0.4-0.4-0.6-0.8-0.4l-7.5,4.6
		C35.9,32.8,35.7,32.8,35.5,32.7z"/>
</g>
</svg>
