<svg xmlns="http://www.w3.org/2000/svg" viewBox="0 0 471.65 156.78"><defs><style>.cls-1{fill:#dc582a;}</style></defs><g id="Capa_2" data-name="Capa 2"><g id="Capa_1-2" data-name="Capa 1"><polygon class="cls-1" points="197.91 153.47 160.76 153.47 160.76 79.57 197.91 102.01 197.91 153.47"/><polygon class="cls-1" points="234.78 50.98 160.76 5.65 160.76 48.13 234.78 92.49 271.8 70.31 271.8 153.47 308.79 153.47 308.79 48.13 308.79 16.16 308.79 5.65 234.78 50.98"/><path class="cls-1" d="M48.13,48.85a42.23,42.23,0,0,1,59.39,0L133.58,23A79.2,79.2,0,0,0,22.07,23,77.75,77.75,0,0,0,0,66H37.75A41.16,41.16,0,0,1,48.13,48.85"/><path class="cls-1" d="M48.13,107.94a41.2,41.2,0,0,1-9.59-14.85H.39a78.54,78.54,0,0,0,77.4,63.69,78.91,78.91,0,0,0,55.79-22.91l-26.06-25.93a42.2,42.2,0,0,1-59.39,0"/><rect class="cls-1" x="385.61" y="65.89" width="37.16" height="87.58"/><rect class="cls-1" x="336" y="5.65" width="135.66" height="33.12"/></g></g></svg>