<svg xmlns="http://www.w3.org/2000/svg" viewBox="0 0 740.14 157"><defs><style>.cls-1{fill:#fff;}</style></defs><g id="Capa_2" data-name="Capa 2"><g id="Capa_1-2" data-name="Capa 1"><polygon class="cls-1" points="197.91 153.47 160.76 153.47 160.76 79.57 197.91 102.01 197.91 153.47"/><polygon class="cls-1" points="234.78 50.98 160.76 5.65 160.76 48.13 234.78 92.49 271.8 70.31 271.8 153.47 308.79 153.47 308.79 48.13 308.79 16.16 308.79 5.65 234.78 50.98"/><path class="cls-1" d="M48.13,48.85a42.23,42.23,0,0,1,59.39,0L133.58,23A79.2,79.2,0,0,0,22.07,23,77.75,77.75,0,0,0,0,66H37.75A41.16,41.16,0,0,1,48.13,48.85"/><path class="cls-1" d="M48.13,107.94a41.2,41.2,0,0,1-9.59-14.85H.39a78.54,78.54,0,0,0,77.4,63.69,78.91,78.91,0,0,0,55.79-22.91l-26.06-25.93a42.2,42.2,0,0,1-59.39,0"/><rect class="cls-1" x="385.61" y="65.89" width="37.16" height="87.58"/><rect class="cls-1" x="336" y="5.65" width="135.66" height="33.12"/><path class="cls-1" d="M536.71,11.89l-5.24,3.19a9.16,9.16,0,0,0-7.9-4.18c-5.55,0-9.66,4-9.66,9.94,0,6.11,4.26,10,9.66,10a9.33,9.33,0,0,0,8-4.16l5,3.56a15.25,15.25,0,0,1-12.91,6.42c-9.41,0-16.06-6.62-16.06-15.77S514.2,5.07,523.61,5.07c5.63,0,10.62,2.57,13.1,6.82"/><path class="cls-1" d="M561.24,25.49a15.15,15.15,0,0,1-.11,1.91h-15a5.12,5.12,0,0,0,5.45,4.37,8.63,8.63,0,0,0,5.35-2l3.34,3.65a12.9,12.9,0,0,1-9,3.2c-6.49,0-11-4.4-11-11s4.36-11.15,10.7-11.15c6.1,0,10.26,4.5,10.29,11.06m-15.09-1.95h9.37c-.53-2.7-2.16-4.22-4.61-4.22-2.68,0-4.26,1.61-4.76,4.22"/><path class="cls-1" d="M585.92,22.65v13.4h-5.69V24.47c0-3-1.53-4.72-4.13-4.72s-4.48,1.6-4.48,4.76V36.05h-5.7V15h5.55v2.48a7.11,7.11,0,0,1,6.22-3.05,7.87,7.87,0,0,1,8.23,8.22"/><path class="cls-1" d="M607.12,20h-7.66v7.69c0,2.63,1.39,3.59,3.16,3.59a8.4,8.4,0,0,0,4-1.37l2.09,4.42a11.81,11.81,0,0,1-7,2.23c-5.24,0-7.92-3-7.92-8.41V20h-4.09V15h4.09V8.74h5.7V15h7.66Z"/><path class="cls-1" d="M626.63,14.89l-.85,5.63a9.23,9.23,0,0,0-3.46-.67c-2.64,0-4.45,1.6-4.45,4.73V36.05h-5.7V15h5.53v2.31a6.66,6.66,0,0,1,6-2.88,8.78,8.78,0,0,1,3,.46"/><path class="cls-1" d="M652.12,25.52c0,6.34-4.88,11.08-11.47,11.08s-11.42-4.74-11.42-11.08,4.84-11.09,11.42-11.09,11.47,4.75,11.47,11.09m-17.08,0a5.62,5.62,0,1,0,11.24,0,5.62,5.62,0,1,0-11.24,0"/><polygon class="cls-1" points="542.76 91.95 536.67 91.95 536.67 68.99 529.11 89.02 522.67 89.02 515.12 69.16 515.12 91.95 509.02 91.95 509.02 61.54 517.96 61.54 525.9 82.07 533.83 61.54 542.76 61.54 542.76 91.95"/><path class="cls-1" d="M569,81.4a13.2,13.2,0,0,1-.12,1.9h-15a5.1,5.1,0,0,0,5.44,4.37,8.62,8.62,0,0,0,5.34-2L568,89.3a12.9,12.9,0,0,1-9,3.2c-6.5,0-11-4.39-11-11s4.36-11.15,10.7-11.15c6.09,0,10.27,4.51,10.29,11.07m-15.1-2h9.38c-.54-2.7-2.16-4.22-4.62-4.22-2.68,0-4.25,1.61-4.76,4.22m.95-11.56L559.19,61H566l-5.76,6.84Z"/><path class="cls-1" d="M588.8,73.1V60.67h5.68V92h-5.57V89.63a7.8,7.8,0,0,1-6.34,2.86c-5.83,0-10.24-4.75-10.24-11.07s4.41-11.09,10.24-11.09a7.72,7.72,0,0,1,6.23,2.77m-10.63,8.32c0,3.21,2.11,5.8,5.45,5.8s5.46-2.47,5.46-5.8-2.21-5.8-5.46-5.8-5.45,2.59-5.45,5.8"/><path class="cls-1" d="M607,64a3.64,3.64,0,1,1-3.64-3.66A3.61,3.61,0,0,1,607,64M606.19,92h-5.7v-21h5.7Z"/><path class="cls-1" d="M630.63,74.31l-4.11,3.42A5.89,5.89,0,0,0,622,75.62c-3,0-5.31,2.3-5.31,5.8s2.34,5.8,5.29,5.8a6.2,6.2,0,0,0,4.6-2.13l4.07,3.45a10.42,10.42,0,0,1-8.49,3.95c-6.75,0-11.28-4.69-11.28-11.07s4.53-11.09,11.28-11.09a10.38,10.38,0,0,1,8.47,4"/><path class="cls-1" d="M656.36,81.42c0,6.34-4.87,11.07-11.47,11.07s-11.42-4.73-11.42-11.07,4.85-11.09,11.42-11.09,11.47,4.74,11.47,11.09m-17.08,0a5.63,5.63,0,1,0,5.61-5.8,5.52,5.52,0,0,0-5.61,5.8"/><path class="cls-1" d="M687,73.1V60.67h5.67V92h-5.57V89.63a7.75,7.75,0,0,1-6.33,2.86c-5.83,0-10.24-4.75-10.24-11.07S675,70.33,680.8,70.33A7.73,7.73,0,0,1,687,73.1m-10.64,8.32c0,3.21,2.11,5.8,5.46,5.8s5.46-2.47,5.46-5.8-2.21-5.8-5.46-5.8-5.46,2.59-5.46,5.8"/><path class="cls-1" d="M718.39,81.4a17.66,17.66,0,0,1-.1,1.91h-15a5.11,5.11,0,0,0,5.44,4.36,8.66,8.66,0,0,0,5.36-2l3.34,3.64a12.91,12.91,0,0,1-9,3.19c-6.49,0-11-4.38-11-11s4.36-11.15,10.7-11.15c6.1,0,10.26,4.51,10.28,11.07m-15.08-2h9.37c-.53-2.7-2.17-4.22-4.61-4.22-2.68,0-4.25,1.61-4.76,4.22"/><rect class="cls-1" x="723.08" y="60.67" width="5.7" height="31.28"/><polygon class="cls-1" points="531.29 123.11 521.82 123.11 521.82 147.85 515.73 147.85 515.73 123.11 506.25 123.11 506.25 117.44 531.29 117.44 531.29 123.11"/><path class="cls-1" d="M549.48,126.69l-.85,5.63a9.34,9.34,0,0,0-3.45-.68c-2.64,0-4.46,1.61-4.46,4.74v11.47H535v-21h5.52v2.31a6.71,6.71,0,0,1,6-2.87,8.76,8.76,0,0,1,3,.45"/><path class="cls-1" d="M574.22,147.85h-5.56v-2.32a7.78,7.78,0,0,1-6.34,2.87c-5.82,0-10.24-4.77-10.24-11.08s4.42-11.08,10.24-11.08a7.76,7.76,0,0,1,6.34,2.89V126.8h5.56Zm-16.31-10.53c0,3.22,2.12,5.8,5.46,5.8s5.46-2.48,5.46-5.8-2.21-5.8-5.46-5.8-5.46,2.59-5.46,5.8"/><path class="cls-1" d="M602.39,137.32c0,6.31-4.41,11.08-10.25,11.08a7.74,7.74,0,0,1-6.33-2.87v2.32h-5.56V116.57h5.67V129a7.71,7.71,0,0,1,6.21-2.75c5.85,0,10.26,4.75,10.26,11.08m-16.75,0c0,3.32,2.2,5.8,5.44,5.8s5.45-2.58,5.45-5.8-2.08-5.8-5.45-5.8-5.44,2.48-5.44,5.8"/><path class="cls-1" d="M627.92,147.85h-5.57v-2.32A7.81,7.81,0,0,1,616,148.4c-5.83,0-10.24-4.77-10.24-11.08s4.41-11.08,10.24-11.08a7.79,7.79,0,0,1,6.34,2.89V126.8h5.57ZM611.6,137.32c0,3.22,2.11,5.8,5.46,5.8s5.45-2.48,5.45-5.8-2.2-5.8-5.45-5.8-5.46,2.59-5.46,5.8"/><path class="cls-1" d="M639.72,149.85c0,4.6-2.67,7.15-6.58,7.15a9.6,9.6,0,0,1-3.21-.56l.85-5a4.52,4.52,0,0,0,1.54.25c1,0,1.7-.58,1.7-2.19V126.8h5.7Zm.73-29.93a3.63,3.63,0,0,1-7.26,0,3.63,3.63,0,1,1,7.26,0"/><path class="cls-1" d="M666.54,147.85H661v-2.32a7.77,7.77,0,0,1-6.33,2.87c-5.83,0-10.25-4.77-10.25-11.08s4.42-11.08,10.25-11.08a7.76,7.76,0,0,1,6.33,2.89V126.8h5.56Zm-16.31-10.53c0,3.22,2.12,5.8,5.47,5.8s5.45-2.48,5.45-5.8-2.2-5.8-5.45-5.8-5.47,2.59-5.47,5.8"/><path class="cls-1" d="M687.72,129V116.57h5.68v31.28h-5.56v-2.32a7.78,7.78,0,0,1-6.34,2.87c-5.83,0-10.25-4.77-10.25-11.08s4.42-11.08,10.25-11.08a7.73,7.73,0,0,1,6.22,2.75m-10.63,8.33c0,3.22,2.11,5.8,5.45,5.8s5.46-2.48,5.46-5.8-2.2-5.8-5.46-5.8-5.45,2.59-5.45,5.8"/><path class="cls-1" d="M721,137.32c0,6.34-4.87,11.08-11.47,11.08s-11.42-4.74-11.42-11.08,4.85-11.08,11.42-11.08S721,131,721,137.32m-17.08,0a5.63,5.63,0,1,0,5.61-5.8,5.52,5.52,0,0,0-5.61,5.8"/><path class="cls-1" d="M740.14,126.69l-.85,5.63a9.38,9.38,0,0,0-3.45-.68c-2.64,0-4.46,1.61-4.46,4.74v11.47h-5.7v-21h5.53v2.31a6.69,6.69,0,0,1,6-2.87,8.8,8.8,0,0,1,3,.45"/></g></g></svg>