<?xml version="1.0" encoding="utf-8"?>
<!-- Generator: Adobe Illustrator 27.4.0, SVG Export Plug-In . SVG Version: 6.00 Build 0)  -->
<svg version="1.1" id="Capa_1" xmlns="http://www.w3.org/2000/svg" xmlns:xlink="http://www.w3.org/1999/xlink" x="0px" y="0px"
	 viewBox="0 0 210.1 72" style="enable-background:new 0 0 210.1 72;" xml:space="preserve">
<style type="text/css">
	.st0{fill:#FFFFFF;}
</style>
<g>
	<path class="st0" d="M1.7,30.2h4.1c0.5,0,0.9-0.3,1.1-0.7c0.3-0.8,0.8-1.5,1.5-2.1v0c2.5-2.5,6.4-2.7,9.2-0.6
		c0.4,0.3,1.1,0.3,1.5-0.1l2.7-2.7c0.5-0.5,0.4-1.3-0.1-1.7C16.5,17.9,8.8,18.2,4,23c-1.7,1.7-2.8,3.6-3.4,5.7
		C0.4,29.4,1,30.2,1.7,30.2z"/>
	<path class="st0" d="M18.9,37.9c-0.4-0.4-1-0.4-1.4-0.1c-2.7,2.1-6.7,1.9-9.2-0.6c-0.6-0.6-1-1.2-1.3-1.9c-0.2-0.4-0.5-0.6-1-0.6
		H1.7c-0.7,0-1.2,0.7-1,1.4c0.6,2,1.7,3.9,3.3,5.4c2.6,2.6,5.9,3.8,9.3,3.8c3,0,6-1,8.5-3.1c0.5-0.4,0.5-1.1,0.1-1.6L18.9,37.9z"/>
	<path class="st0" d="M70,30.1h-4.4c-0.5,0-0.9,0.4-0.9,0.9v12.9c0,0.5,0.4,0.9,0.9,0.9H70c0.5,0,0.9-0.4,0.9-0.9V31
		C70.9,30.5,70.5,30.1,70,30.1z"/>
	<path class="st0" d="M78.4,20.1H57.1c-0.4,0-0.7,0.3-0.7,0.7v4.1c0,0.4,0.3,0.7,0.7,0.7h21.2c0.4,0,0.7-0.3,0.7-0.7v-4.1
		C79.1,20.4,78.8,20.1,78.4,20.1z"/>
	<path class="st0" d="M28.1,33c-0.4-0.3-1,0-1,0.5v10.6c0,0.4,0.3,0.6,0.6,0.6h4.9c0.4,0,0.6-0.3,0.6-0.6v-7.6
		c0-0.2-0.1-0.4-0.3-0.5L28.1,33z"/>
	<path class="st0" d="M50.7,20.8l-10.9,6.6c-0.2,0.1-0.5,0.1-0.8,0l0,0l-10.9-6.6c-0.5-0.3-1.1,0.1-1.1,0.6v5.4
		c0,0.3,0.1,0.5,0.4,0.6l11.6,7c0.2,0.1,0.5,0.1,0.8,0l4.7-2.8c0.5-0.3,1.1,0.1,1.1,0.6V44c0,0.4,0.3,0.7,0.7,0.7h4.7
		c0.4,0,0.7-0.3,0.7-0.7V21.4C51.9,20.8,51.2,20.4,50.7,20.8z"/>
	<path class="st0" d="M108.7,15.9c2.6,0,4.8-1.2,6-3l-2.3-1.7c-0.9,1.2-2.1,1.9-3.7,1.9c-2.5,0-4.5-1.8-4.5-4.6
		c0-2.7,1.9-4.6,4.5-4.6c1.6,0,2.9,0.7,3.7,1.9l2.4-1.5v0c-1.2-2-3.5-3.2-6.1-3.2c-4.4,0-7.5,3.1-7.5,7.3
		C101.2,12.8,104.3,15.9,108.7,15.9z"/>
	<path class="st0" d="M121.5,15.9c1.7,0,3.1-0.5,4.2-1.5l-1.6-1.7c-0.7,0.6-1.6,0.9-2.5,0.9c-1.3,0-2.2-0.6-2.5-2h7
		c0-0.2,0-0.6,0-0.9h0c0-3.1-1.8-5.2-4.8-5.2c-3,0-5,2.1-5,5.2S118.5,15.9,121.5,15.9z M121.4,7.9c1.1,0,1.9,0.7,2.1,2h-4.4
		C119.4,8.6,120.1,7.9,121.4,7.9z"/>
	<path class="st0" d="M131,10.3c0-1.5,0.9-2.2,2.1-2.2c1.2,0,1.9,0.8,1.9,2.2v5.4h2.7V9.4h0c0-2.3-1.6-3.8-3.8-3.8
		c-1.1,0-2.2,0.4-2.9,1.4V5.9h-2.6v9.8h2.7V10.3z"/>
	<path class="st0" d="M141.3,12c0,2.5,1.2,3.9,3.7,3.9c1.4,0,2.4-0.4,3.3-1l-1-2.1c-0.5,0.3-1.2,0.6-1.9,0.6c-0.8,0-1.5-0.4-1.5-1.7
		V8.2h3.6h0V5.9H144V2.9h-2.7v2.9h-1.9v2.3h1.9V12z"/>
	<path class="st0" d="M152.6,10.3c0-1.5,0.8-2.2,2.1-2.2c0.5,0,1.2,0.1,1.6,0.3l0.4-2.6v0c-0.4-0.1-0.8-0.2-1.4-0.2
		c-1.2,0-2.2,0.4-2.8,1.3V5.9h-2.6v9.8h2.7V10.3z"/>
	<path class="st0" d="M163.2,15.9c3.1,0,5.3-2.2,5.3-5.2c0-3-2.3-5.2-5.3-5.2s-5.3,2.2-5.3,5.2C157.8,13.7,160.1,15.9,163.2,15.9z
		 M163.2,8.1c1.5,0,2.6,1.1,2.6,2.7c0,1.6-1.1,2.7-2.6,2.7s-2.6-1.1-2.6-2.7C160.6,9.2,161.7,8.1,163.2,8.1z"/>
	<polygon class="st0" points="117.6,41.7 117.6,27.5 113.4,27.5 109.7,37.1 106,27.5 101.9,27.5 101.9,41.7 104.7,41.7 104.7,31.1 
		108.2,40.3 111.2,40.3 114.7,31 114.7,41.7 	"/>
	<path class="st0" d="M129.3,40.5l-1.6-1.7c-0.7,0.6-1.6,0.9-2.5,0.9c-1.3,0-2.3-0.6-2.5-2h7c0-0.2,0.1-0.6,0.1-0.9
		c0-3.1-1.8-5.2-4.8-5.2s-5,2.1-5,5.2c0,3.1,2.1,5.1,5.1,5.1C126.8,42,128.2,41.5,129.3,40.5z M125,33.9c1.1,0,1.9,0.7,2.2,2h-4.4
		C123,34.7,123.7,33.9,125,33.9z"/>
	<polygon class="st0" points="123.2,30.5 125.7,30.5 128.4,27.3 125.2,27.3 	"/>
	<path class="st0" d="M139.1,40.6v1.1h2.6V27.1H139v5.8c-0.6-0.8-1.6-1.3-2.9-1.3c-2.7,0-4.8,2.2-4.8,5.2s2.1,5.2,4.8,5.2
		C137.5,42,138.4,41.4,139.1,40.6z M134.1,36.8c0-1.5,1-2.7,2.5-2.7c1.5,0,2.5,1.2,2.5,2.7s-1,2.7-2.5,2.7S134.1,38.3,134.1,36.8z"
		/>
	<rect x="144.5" y="31.9" class="st0" width="2.7" height="9.8"/>
	<path class="st0" d="M145.8,27c-1,0-1.7,0.8-1.7,1.7c0,1,0.7,1.7,1.7,1.7s1.7-0.7,1.7-1.7C147.5,27.7,146.7,27,145.8,27z"/>
	<path class="st0" d="M156.6,38.5c-0.6,0.6-1.3,1-2.1,1c-1.4,0-2.5-1.1-2.5-2.7c0-1.6,1.1-2.7,2.5-2.7c0.9,0,1.5,0.3,2.1,1l1.9-1.6
		c-0.9-1.2-2.3-1.8-3.9-1.8c-3.1,0-5.3,2.2-5.3,5.2s2.1,5.2,5.3,5.2c1.6,0,3-0.7,4-1.8L156.6,38.5z"/>
	<polygon class="st0" points="158.5,33.5 158.5,33.5 158.5,33.5 	"/>
	<path class="st0" d="M159.8,36.8c0,3,2.2,5.2,5.3,5.2c3.1,0,5.3-2.2,5.3-5.2c0-3-2.3-5.2-5.3-5.2S159.8,33.8,159.8,36.8z
		 M167.8,36.8c0,1.6-1.1,2.7-2.6,2.7s-2.6-1.1-2.6-2.7c0-1.6,1.1-2.7,2.6-2.7C166.6,34.1,167.8,35.2,167.8,36.8z"/>
	<path class="st0" d="M181.9,42c1.4,0,2.3-0.5,3-1.3v1.1h2.6V27.1h-2.6v5.8h0c-0.6-0.8-1.6-1.3-2.9-1.3c-2.7,0-4.8,2.2-4.8,5.2
		S179.2,42,181.9,42z M182.4,34.1c1.5,0,2.5,1.2,2.5,2.7s-1,2.7-2.5,2.7s-2.5-1.2-2.5-2.7C179.8,35.3,180.8,34.1,182.4,34.1z"/>
	<path class="st0" d="M194.7,42c1.7,0,3.1-0.5,4.2-1.5l-1.6-1.7c-0.7,0.6-1.6,0.9-2.5,0.9c-1.3,0-2.2-0.6-2.5-2h7c0-0.2,0-0.6,0-0.9
		h0c0-3.1-1.8-5.2-4.8-5.2c-3,0-5,2.1-5,5.2S191.7,42,194.7,42z M194.6,33.9c1.1,0,1.9,0.7,2.1,2h-4.4
		C192.6,34.7,193.3,33.9,194.6,33.9z"/>
	<rect x="201.6" y="27.1" class="st0" width="2.7" height="14.6"/>
	<polygon class="st0" points="100.6,56.2 105,56.2 105,67.7 107.8,67.7 107.8,56.2 112.2,56.2 112.2,53.6 100.6,53.6 	"/>
	<polygon class="st0" points="120.7,57.9 120.7,57.9 120.7,57.9 	"/>
	<path class="st0" d="M116.5,59v-1.1H114v9.8h2.7v-5.3c0-1.5,0.8-2.2,2.1-2.2c0.5,0,1.2,0.1,1.6,0.3l0.4-2.6
		c-0.4-0.1-0.8-0.2-1.4-0.2C118.1,57.7,117.2,58.1,116.5,59z"/>
	<path class="st0" d="M129.6,59c-0.7-0.8-1.6-1.3-3-1.3c-2.7,0-4.8,2.2-4.8,5.2c0,2.9,2.1,5.2,4.8,5.2c1.4,0,2.3-0.5,3-1.3v1.1h2.6
		v0v-9.8h-2.6V59z M127.2,65.5c-1.6,0-2.5-1.2-2.5-2.7c0-1.5,1-2.7,2.5-2.7s2.5,1.2,2.5,2.7C129.7,64.4,128.7,65.5,127.2,65.5z"/>
	<path class="st0" d="M140.6,57.7c-1.3,0-2.2,0.5-2.9,1.3v-5.8H135v14.6h2.6v-1.1c0.6,0.8,1.6,1.3,3,1.3c2.7,0,4.8-2.2,4.8-5.2h0
		C145.3,59.9,143.3,57.7,140.6,57.7z M140.1,65.5c-1.5,0-2.5-1.2-2.5-2.7c0-1.5,1-2.7,2.5-2.7c1.6,0,2.5,1.2,2.5,2.7
		S141.6,65.5,140.1,65.5z"/>
	<path class="st0" d="M154.6,59c-0.7-0.8-1.6-1.3-3-1.3c-2.7,0-4.8,2.2-4.8,5.2c0,2.9,2.1,5.2,4.8,5.2c1.4,0,2.3-0.5,3-1.3v1.1h2.6
		v0v-9.8h-2.6V59z M152.2,65.5c-1.6,0-2.5-1.2-2.5-2.7c0-1.5,1-2.7,2.5-2.7c1.5,0,2.5,1.2,2.5,2.7C154.7,64.4,153.7,65.5,152.2,65.5
		z"/>
	<path class="st0" d="M160.1,68.5c0,0.7-0.3,1-0.8,1c-0.3,0-0.5,0-0.7-0.1l-0.4,2.3c0.4,0.2,1,0.3,1.5,0.3c1.8,0,3.1-1.2,3.1-3.3
		V57.9h-2.7V68.5z"/>
	<path class="st0" d="M161.4,53c-1,0-1.7,0.8-1.7,1.7s0.7,1.7,1.7,1.7s1.7-0.7,1.7-1.7C163.1,53.8,162.3,53,161.4,53z"/>
	<path class="st0" d="M172.6,59c-0.7-0.8-1.6-1.3-2.9-1.3c-2.7,0-4.8,2.2-4.8,5.2c0,2.9,2.1,5.2,4.8,5.2c1.4,0,2.3-0.5,2.9-1.3v1.1
		h2.6v0v-9.8h-2.6V59z M170.2,65.5c-1.6,0-2.5-1.2-2.5-2.7c0-1.5,1-2.7,2.5-2.7s2.5,1.2,2.5,2.7C172.7,64.4,171.7,65.5,170.2,65.5z"
		/>
	<path class="st0" d="M185.1,59c-0.6-0.8-1.6-1.3-2.9-1.3c-2.7,0-4.8,2.2-4.8,5.2s2.1,5.2,4.8,5.2c1.4,0,2.3-0.5,3-1.3v1.1h2.6V53.2
		h-2.6V59z M182.7,65.5c-1.6,0-2.5-1.2-2.5-2.7c0-1.5,1-2.7,2.5-2.7s2.5,1.2,2.5,2.7S184.2,65.5,182.7,65.5z"/>
	<path class="st0" d="M195.3,57.7c-3.1,0-5.3,2.2-5.3,5.2s2.3,5.2,5.3,5.2s5.3-2.2,5.3-5.2C200.6,59.9,198.3,57.7,195.3,57.7z
		 M195.3,65.5c-1.5,0-2.6-1.1-2.6-2.7s1.1-2.7,2.6-2.7c1.5,0,2.6,1.1,2.6,2.7C197.9,64.4,196.7,65.5,195.3,65.5z"/>
	<path class="st0" d="M209.5,57.9c-0.4-0.1-0.8-0.2-1.4-0.2c-1.2,0-2.2,0.4-2.8,1.3v-1.1h-2.6v9.8h2.7v-5.3c0-1.5,0.8-2.2,2.1-2.2
		c0.5,0,1.2,0.1,1.6,0.3L209.5,57.9L209.5,57.9z"/>
	<rect x="87.5" class="st0" width="2.4" height="70.7"/>
</g>
</svg>
