<?xml version="1.0" encoding="utf-8"?>
<!-- Generator: Adobe Illustrator 27.0.0, SVG Export Plug-In . SVG Version: 6.00 Build 0)  -->
<svg version="1.1" id="Capa_1" xmlns="http://www.w3.org/2000/svg" xmlns:xlink="http://www.w3.org/1999/xlink" x="0px" y="0px"
	 viewBox="0 0 409 95.2" style="enable-background:new 0 0 409 95.2;" xml:space="preserve">
<style type="text/css">
	.st0{fill:#DC582A;}
</style>
<g>
	<g id="Capa_2_00000131349627382414495800000017464074874701019047_">
		<g id="Capa_1-2">
			<polygon class="st0" points="101.8,85.6 82.9,85.6 82.9,48.1 101.8,59.5 			"/>
			<polygon class="st0" points="120.5,33.6 82.9,10.6 82.9,32.2 120.5,54.7 139.2,43.4 139.2,85.6 158,85.6 158,32.2 158,16 
				158,10.6 			"/>
			<path class="st0" d="M25.8,32.5c8.3-8.2,21.8-8.2,30.1,0l13.2-13.1c-15.6-15.5-40.9-15.5-56.5,0C6.7,25.3,2.7,33,1.4,41.3h19.1
				C21.5,37.9,23.3,34.9,25.8,32.5"/>
			<path class="st0" d="M25.8,62.5C23.7,60.4,22,57.8,21,55H1.6c3.6,18.8,20.1,32.4,39.2,32.3c10.6,0,20.8-4.2,28.3-11.6L55.9,62.5
				C47.6,70.8,34.2,70.8,25.8,62.5"/>
			<rect x="196.9" y="41.2" class="st0" width="18.8" height="44.4"/>
			<rect x="171.8" y="10.6" class="st0" width="68.8" height="16.8"/>
			<path class="st0" d="M273.5,13.8l-2.7,1.6c-0.9-1.3-2.4-2.1-4-2.1c-2.6-0.1-4.8,2-4.9,4.6c0,0.1,0,0.3,0,0.4
				c-0.1,2.7,2.1,5,4.8,5c1.6,0,3.2-0.7,4.1-2.1l2.5,1.8c-1.5,2.1-4,3.3-6.5,3.3c-4.8,0-8.1-3.4-8.1-8s3.4-8,8.1-8
				c2.7-0.1,5.2,1.2,6.6,3.5"/>
			<path class="st0" d="M286,20.7c0,0.3,0,0.6-0.1,1h-7.6c0.2,1.4,1.4,2.3,2.8,2.2c1,0,1.9-0.4,2.7-1l1.7,1.9
				c-1.3,1.1-2.9,1.7-4.6,1.6c-2.9,0.2-5.4-2.1-5.6-5c0-0.2,0-0.4,0-0.6c0-3.4,2.2-5.7,5.4-5.7C283.8,15.1,286,17.4,286,20.7
				 M278.3,19.7h4.8c0-1.3-1.1-2.4-2.4-2.4C279.4,17.3,278.3,18.4,278.3,19.7"/>
			<path class="st0" d="M298.5,19.2v6.8h-2.9v-5.9c0-1.5-0.8-2.4-2.1-2.4c-1.2,0-2.2,0.9-2.3,2.1c0,0.1,0,0.2,0,0.3v5.9h-2.9V15.4
				h2.8v1.3c0.7-1,1.9-1.6,3.2-1.5c2.2-0.1,4.1,1.6,4.2,3.8C298.5,19,298.5,19.1,298.5,19.2"/>
			<path class="st0" d="M309.2,17.9h-3.9v3.9c0,1.3,0.7,1.8,1.6,1.8c0.7-0.1,1.4-0.3,2-0.7l1.1,2.2c-1,0.7-2.3,1.1-3.6,1.1
				c-2.7,0-4-1.5-4-4.3v-4.1h-2.1v-2.6h2.1v-3.2h2.9v3.2h3.9L309.2,17.9z"/>
			<path class="st0" d="M319.1,15.3l-0.4,2.9c-0.6-0.2-1.2-0.3-1.8-0.3c-1.2-0.1-2.2,0.8-2.3,2c0,0.1,0,0.3,0,0.4v5.9h-2.9V15.4h2.8
				v1.2c0.7-1,1.8-1.5,3-1.5C318.1,15.1,318.6,15.1,319.1,15.3"/>
			<path class="st0" d="M332,20.7c0.1,3.2-2.4,5.9-5.6,6c-3.2,0.1-5.9-2.4-6-5.6c-0.1-3.2,2.4-5.9,5.6-6c0.1,0,0.1,0,0.2,0
				c3.1-0.1,5.7,2.3,5.8,5.3C332,20.5,332,20.6,332,20.7 M323.4,20.7c-0.1,1.6,1.1,2.9,2.7,3c1.6,0.1,2.9-1.1,3-2.7
				c0-0.1,0-0.2,0-0.3c0.1-1.6-1.1-2.9-2.7-3c-1.6-0.1-2.9,1.1-3,2.7C323.4,20.5,323.4,20.6,323.4,20.7"/>
			<polygon class="st0" points="276.6,54.4 273.5,54.4 273.5,42.7 269.7,52.9 266.4,52.9 262.6,42.8 262.6,54.4 259.5,54.4 
				259.5,39 264,39 268.1,49.4 272.1,39 276.6,39 			"/>
			<path class="st0" d="M289.9,49c0,0.3,0,0.6-0.1,1h-7.6c0.2,1.3,1.4,2.3,2.8,2.2c1,0,2-0.4,2.7-1l1.7,1.8
				c-1.3,1.1-2.9,1.7-4.6,1.6c-2.9,0.2-5.4-2.1-5.6-5c0-0.2,0-0.4,0-0.6c0-3.4,2.2-5.7,5.4-5.7S289.9,45.7,289.9,49 M282.2,48h4.8
				c0-1.3-1.1-2.4-2.4-2.4S282.2,46.7,282.2,48 M282.7,42.1l2.2-3.5h3.5l-2.9,3.5H282.7z"/>
			<path class="st0" d="M299.9,44.8v-6.3h2.9v15.9H300v-1.2c-0.8,0.9-2,1.5-3.2,1.4c-3,0-5.2-2.4-5.2-5.6c0-3.2,2.2-5.6,5.2-5.6
				C298,43.4,299.2,43.9,299.9,44.8 M294.6,49.1c0.1,1.5,1.4,2.7,2.9,2.6c1.5-0.1,2.7-1.4,2.6-2.9c-0.1-1.5-1.3-2.6-2.8-2.6
				c-1.5,0-2.8,1.2-2.8,2.7C294.6,48.9,294.6,49,294.6,49.1"/>
			<path class="st0" d="M309.1,40.2c0,1-0.8,1.8-1.9,1.8c-1,0-1.8-0.8-1.8-1.9c0-1,0.8-1.8,1.8-1.8
				C308.3,38.4,309.1,39.2,309.1,40.2C309.1,40.2,309.1,40.2,309.1,40.2 M308.8,54.4h-2.9V43.7h2.9V54.4z"/>
			<path class="st0" d="M321.1,45.4l-2.1,1.7c-0.6-0.7-1.4-1.1-2.3-1.1c-1.5,0-2.7,1.2-2.7,2.7c0,0.1,0,0.1,0,0.2
				c-0.1,1.5,1,2.8,2.5,2.9c0.1,0,0.1,0,0.2,0c0.9,0,1.7-0.4,2.3-1.1l2.1,1.8c-1,1.3-2.6,2-4.3,2c-3.1,0.1-5.7-2.3-5.8-5.4
				c-0.1-3.1,2.3-5.7,5.4-5.8c0.1,0,0.3,0,0.4,0C318.5,43.4,320.1,44.1,321.1,45.4"/>
			<path class="st0" d="M334.2,49.1c0.1,3.2-2.4,5.9-5.6,6c-3.2,0.1-5.9-2.4-6-5.6c-0.1-3.2,2.4-5.9,5.6-6c0.1,0,0.1,0,0.2,0
				c3.1-0.1,5.7,2.3,5.8,5.3C334.2,48.9,334.2,49,334.2,49.1 M325.5,49.1c0.1,1.6,1.4,2.8,2.9,2.8s2.8-1.4,2.8-2.9
				c-0.1-1.5-1.3-2.8-2.9-2.8c-1.5,0-2.8,1.2-2.8,2.7C325.5,48.9,325.5,49,325.5,49.1"/>
			<path class="st0" d="M349.7,44.8v-6.3h2.9v15.9h-2.8v-1.2c-0.8,1-2,1.5-3.2,1.4c-3,0-5.2-2.4-5.2-5.6c0-3.2,2.2-5.6,5.2-5.6
				C347.8,43.4,349,43.9,349.7,44.8 M344.4,49.1c0.1,1.5,1.4,2.7,2.9,2.6c1.5-0.1,2.7-1.4,2.6-2.9c-0.1-1.5-1.3-2.6-2.8-2.6
				c-1.5,0-2.8,1.2-2.8,2.7C344.4,48.9,344.4,49,344.4,49.1"/>
			<path class="st0" d="M365.6,49c0,0.3,0,0.6-0.1,1H358c0.2,1.3,1.4,2.3,2.8,2.2c1,0,2-0.4,2.7-1l1.7,1.8c-1.3,1.1-2.9,1.7-4.6,1.6
				c-2.9,0.2-5.4-2.1-5.6-5c0-0.2,0-0.4,0-0.6c0-3.4,2.2-5.7,5.4-5.7C363.6,43.4,365.7,45.7,365.6,49 M358,48h4.8
				c0-1.3-1.1-2.4-2.4-2.4S358,46.7,358,48"/>
			<rect x="368" y="38.5" class="st0" width="2.9" height="15.9"/>
			<polygon class="st0" points="270.8,70.2 266,70.2 266,82.7 262.9,82.7 262.9,70.2 258.1,70.2 258.1,67.3 270.8,67.3 			"/>
			<path class="st0" d="M280,72l-0.4,2.9c-0.6-0.2-1.2-0.3-1.8-0.3c-1.2-0.1-2.2,0.8-2.3,2c0,0.1,0,0.3,0,0.4v5.8h-2.9V72.1h2.8v1.2
				c0.7-1,1.8-1.5,3-1.4C279,71.8,279.5,71.8,280,72"/>
			<path class="st0" d="M292.6,82.7h-2.8v-1.2c-0.8,1-2,1.5-3.2,1.5c-3,0-5.2-2.4-5.2-5.6c0-3.2,2.2-5.6,5.2-5.6
				c1.2,0,2.4,0.5,3.2,1.5v-1.2h2.8V82.7z M284.3,77.4c0.1,1.5,1.4,2.7,2.9,2.6s2.7-1.4,2.6-2.9c-0.1-1.5-1.3-2.6-2.8-2.6
				c-1.5,0-2.8,1.2-2.8,2.7C284.3,77.3,284.3,77.3,284.3,77.4"/>
			<path class="st0" d="M306.8,77.4c0,3.2-2.2,5.6-5.2,5.6c-1.2,0-2.4-0.5-3.2-1.5v1.2h-2.8V66.9h2.9v6.3c0.8-0.9,1.9-1.4,3.1-1.4
				C304.6,71.8,306.9,74.2,306.8,77.4 M298.4,77.3c0.1,1.5,1.4,2.7,2.9,2.6c1.5-0.1,2.7-1.4,2.6-2.9c-0.1-1.5-1.3-2.6-2.8-2.6
				c-1.5,0-2.8,1.2-2.8,2.7C298.3,77.2,298.3,77.3,298.4,77.3"/>
			<path class="st0" d="M319.8,82.7H317v-1.2c-0.8,1-2,1.5-3.2,1.5c-3,0-5.2-2.4-5.2-5.6c0-3.2,2.2-5.6,5.2-5.6
				c1.2,0,2.4,0.5,3.2,1.5v-1.2h2.9V82.7z M311.5,77.4c0.1,1.5,1.4,2.7,2.9,2.6c1.5-0.1,2.7-1.4,2.6-2.9c-0.1-1.5-1.3-2.7-2.8-2.6
				c-1.5,0-2.8,1.2-2.8,2.7C311.5,77.3,311.5,77.3,311.5,77.4"/>
			<path class="st0" d="M325.8,83.7c0,2.3-1.4,3.6-3.3,3.6c-0.5,0-1.1-0.1-1.6-0.3l0.4-2.5c0.3,0.1,0.5,0.1,0.8,0.1
				c0.5,0,0.9-0.3,0.9-1.1V72.1h2.9L325.8,83.7z M326.1,68.6c0,1-0.8,1.8-1.9,1.8s-1.8-0.8-1.8-1.9c0-1,0.8-1.8,1.8-1.8
				C325.3,66.7,326.1,67.5,326.1,68.6C326.1,68.5,326.1,68.6,326.1,68.6"/>
			<path class="st0" d="M339.4,82.7h-2.8v-1.2c-0.8,1-2,1.5-3.2,1.5c-3,0-5.2-2.4-5.2-5.6c0-3.2,2.2-5.6,5.2-5.6
				c1.2,0,2.4,0.5,3.2,1.5v-1.2h2.8L339.4,82.7z M331.1,77.4c0.1,1.5,1.4,2.7,2.9,2.6s2.7-1.4,2.6-2.9c-0.1-1.5-1.3-2.6-2.8-2.6
				c-1.5,0-2.8,1.2-2.8,2.7C331.1,77.3,331.1,77.3,331.1,77.4"/>
			<path class="st0" d="M350.1,73.2v-6.3h2.9v15.9h-2.8v-1.2c-0.8,1-2,1.5-3.2,1.5c-3,0-5.2-2.4-5.2-5.6c0-3.2,2.2-5.6,5.2-5.6
				C348.2,71.8,349.3,72.3,350.1,73.2 M344.7,77.4c0.1,1.5,1.4,2.7,2.9,2.6c1.5-0.1,2.7-1.4,2.6-2.9c-0.1-1.5-1.3-2.6-2.8-2.6
				c-1.5,0-2.8,1.2-2.8,2.7C344.7,77.3,344.7,77.4,344.7,77.4"/>
			<path class="st0" d="M367,77.4c0.1,3.2-2.4,5.9-5.6,6c-3.2,0.1-5.9-2.4-6-5.6c-0.1-3.2,2.4-5.9,5.6-6c0.1,0,0.1,0,0.2,0
				c3.1-0.1,5.7,2.3,5.8,5.3C367,77.2,367,77.3,367,77.4 M358.3,77.4c0,1.6,1.4,2.8,2.9,2.8c1.6,0,2.8-1.4,2.8-2.9
				c0-1.5-1.3-2.8-2.9-2.8c-1.5,0-2.8,1.2-2.8,2.8C358.3,77.3,358.3,77.3,358.3,77.4"/>
			<path class="st0" d="M376.7,72l-0.4,2.9c-0.6-0.2-1.1-0.3-1.7-0.3c-1.2-0.1-2.2,0.8-2.3,2c0,0.1,0,0.3,0,0.4v5.8h-2.9V72.1h2.8
				v1.2c0.7-1,1.8-1.5,3-1.4C375.7,71.8,376.2,71.8,376.7,72"/>
			<path class="st0" d="M399,10.6c-4.6-0.1-8.5,3.6-8.6,8.2c0,0.1,0,0.1,0,0.2c0,4.7,3.8,8.6,8.6,8.6c4.7,0,8.6-3.8,8.6-8.6
				C407.5,14.4,403.7,10.6,399,10.6z M399,26.3c-4,0.1-7.2-3.1-7.3-7.1c0-0.1,0-0.1,0-0.2c0-4,3.3-7.2,7.2-7.2c4,0,7.2,3.3,7.2,7.2
				C406.2,23,403,26.3,399,26.3z"/>
			<path class="st0" d="M398.5,19.9l2.4,3h1.6l-2.6-3l0.4,0c1.5-0.2,2.4-1,2.4-2.3c0-1.5-1.1-2.4-3.1-2.4H396v7.8h1.4v-3.1
				L398.5,19.9L398.5,19.9z M397.3,16.3h2.2c1.1,0,1.7,0.5,1.7,1.3s-0.6,1.3-1.7,1.3h-2.2V16.3z"/>
		</g>
	</g>
</g>
</svg>
